<svg width="442" height="393" viewBox="0 0 442 393" fill="none" xmlns="http://www.w3.org/2000/svg">
<path id="Blob-bg" opacity="0.24" d="M123.27 32.7869C110.89 43.7269 100.51 56.9469 87.0897 66.5969C62.6397 84.1469 28.7397 89.4869 11.0597 113.917C-7.69033 139.787 0.0296745 176.427 14.7497 204.787C29.4697 233.147 50.5397 258.877 58.0397 289.887C61.2197 302.917 61.8597 316.567 66.4897 329.157C79.1397 363.517 117.51 380.937 153.43 388.017C175.04 392.257 197.41 394.067 219.09 390.147C239.72 386.417 259.37 377.567 280.27 375.997C300.11 374.507 320.58 379.627 339.68 374.097C349.22 371.337 357.81 366.047 365.55 359.847C380.15 348.167 392.24 332.507 396.42 314.277C399.74 299.757 397.92 284.607 399.16 269.777C401.17 245.827 411.09 223.367 420.75 201.377C430.41 179.387 440.02 156.697 441.34 132.707C442.66 108.707 434.04 82.7369 413.96 69.5469C394.71 56.8869 369.32 56.0869 348.13 47.8369C330.5 40.9769 314.3 31.4669 297.63 22.6869C264.27 5.11688 225.51 -4.59312 187.92 2.15688C164.19 6.42688 141.44 16.7369 123.27 32.7869Z" fill="#D9B08C"/>
</svg>
