<svg width="330" height="323" viewBox="0 0 330 323" fill="none" xmlns="http://www.w3.org/2000/svg">
<g id="rotating-circle">
<g id="bottle_recycling-4-19">
<path id="Vector" d="M281.323 172.615C280.543 173.095 279.943 173.815 279.603 174.655C279.373 175.525 280.033 176.665 280.923 176.535C281.213 176.435 281.513 176.365 281.823 176.325C282.163 176.395 282.463 176.575 282.663 176.845C284.443 178.695 286.323 180.765 286.523 183.325C286.543 184.365 286.473 185.405 286.303 186.425C286.063 190.055 286.813 193.695 288.463 196.935C290.103 200.165 292.033 203.235 294.233 206.125L307.513 224.725C308.783 226.515 310.243 228.425 312.383 228.945C314.853 229.545 317.313 228.065 319.353 226.555C322.453 224.235 325.333 221.645 327.983 218.815C329.983 217.305 330.373 214.455 328.863 212.465C328.863 212.465 328.863 212.465 328.863 212.455C323.943 202.225 315.513 194.165 308.683 185.105C307.283 183.255 305.913 181.305 304.023 179.955C301.513 178.155 298.353 177.605 295.453 176.555C292.553 175.495 289.583 173.575 288.903 170.555C288.853 170.095 288.713 169.655 288.473 169.255C286.833 167.095 282.543 171.685 281.343 172.585L281.323 172.615Z" fill="#4A7C59"/>
</g>
<g id="can_recycling-4-19">
<path id="Vector_2" d="M208.913 295.315C210.043 296.425 211.753 297.175 212.093 298.725C212.333 299.835 211.753 301.115 212.253 302.105C212.483 302.495 212.753 302.865 213.053 303.215C213.573 304.075 213.863 305.055 213.913 306.065L214.523 310.835C214.663 312.585 215.043 314.315 215.633 315.975C216.243 317.645 217.493 319.005 219.113 319.765C220.883 320.485 222.893 320.135 224.773 319.765L235.663 317.685C237.713 317.355 239.733 316.845 241.703 316.165C245.763 314.585 249.113 311.585 251.113 307.715C251.843 306.295 252.373 304.585 251.713 303.135C251.193 301.995 250.073 301.285 249.133 300.465C247.393 298.925 246.213 296.865 245.743 294.585C245.583 293.215 245.313 291.855 244.943 290.525C244.593 289.565 243.993 288.705 243.583 287.765C243.073 286.485 242.743 285.155 242.593 283.785C242.233 281.395 241.953 279.015 241.753 276.555C241.593 274.715 241.383 272.655 239.943 271.495C238.753 274.475 236.133 276.695 233.243 278.085C230.293 279.345 227.193 280.245 224.023 280.745C219.083 281.745 214.043 282.745 209.023 282.195C208.043 282.085 205.233 281.635 204.773 282.995C204.513 283.795 205.873 285.915 206.083 286.805C206.813 289.705 206.683 293.135 208.903 295.335L208.913 295.315Z" fill="#4A7C59"/>
<path id="Vector_3" opacity="0.65" d="M251.123 307.755C249.123 311.625 245.763 314.635 241.693 316.205C239.733 316.885 237.723 317.385 235.673 317.705C233.133 318.195 230.643 318.685 228.133 319.135C227.023 319.365 225.893 319.585 224.783 319.785C222.893 320.145 220.913 320.505 219.123 319.785C217.513 319.035 216.263 317.675 215.643 316.015C215.063 314.355 214.693 312.625 214.533 310.875C214.333 309.285 214.113 307.695 213.913 306.105C213.873 305.095 213.583 304.115 213.073 303.245C212.763 302.895 212.483 302.525 212.233 302.135C211.743 301.125 212.333 299.895 212.093 298.755C212.093 298.685 212.093 298.585 211.993 298.525C211.573 297.155 209.973 296.405 208.903 295.345C206.683 293.165 206.823 289.725 206.133 286.895C205.903 285.985 204.543 283.845 204.833 283.065C205.293 281.725 208.083 282.195 209.063 282.315C214.073 282.865 219.113 281.865 224.053 280.855C227.233 280.365 230.333 279.465 233.283 278.195C236.253 276.905 238.633 274.565 239.983 271.625C241.413 272.765 241.613 274.845 241.773 276.655C241.963 279.045 242.263 281.505 242.613 283.875C242.783 285.235 243.123 286.575 243.623 287.855C244.043 288.795 244.633 289.645 244.993 290.615C245.343 291.955 245.593 293.305 245.743 294.675C246.203 296.955 247.393 299.015 249.123 300.565C250.073 301.365 251.203 302.095 251.693 303.225C252.373 304.635 251.823 306.315 251.103 307.755H251.123Z" fill="url(#paint0_linear_19_88)"/>
<path id="Vector_4" d="M220.443 300.445C220.803 300.575 221.133 300.775 221.413 301.035C222.083 301.755 221.903 302.975 222.543 303.715C222.023 304.005 221.453 304.175 220.863 304.225L218.123 304.645C217.443 304.805 216.743 304.805 216.063 304.645C214.403 304.075 213.323 300.935 214.103 299.385C215.253 297.105 218.843 299.735 220.443 300.445Z" fill="url(#paint1_linear_19_88)"/>
<path id="Vector_5" d="M238.313 300.175C238.083 301.765 238.143 303.425 237.643 304.945C237.193 306.335 236.313 307.595 236.123 309.045C236.083 309.225 236.103 309.415 236.183 309.585C236.363 309.905 236.823 309.905 237.193 309.835C239.213 309.345 241.013 308.205 242.313 306.585C243.603 304.965 244.703 303.215 245.603 301.355C245.873 300.965 245.993 300.495 245.963 300.015C245.863 299.675 245.683 299.365 245.443 299.105C244.283 297.575 243.623 295.725 243.563 293.805C243.623 292.745 243.583 291.675 243.463 290.625C243.253 289.555 242.663 288.435 241.623 289.165C240.883 289.665 240.783 291.885 240.533 292.705C239.783 295.245 238.673 297.625 238.303 300.185L238.313 300.175Z" fill="url(#paint2_linear_19_88)"/>
<path id="Vector_6" d="M204.483 276.385C203.713 277.375 203.273 278.575 203.213 279.825C203.383 281.505 204.483 282.945 206.043 283.575C207.583 284.175 209.243 284.425 210.893 284.325C217.613 284.265 224.253 282.915 230.463 280.345C233.413 279.125 236.353 277.565 238.223 274.975C240.093 272.395 240.613 268.615 238.633 266.075C235.013 261.435 225.663 263.175 220.833 264.535C214.133 266.395 208.333 270.605 204.483 276.385Z" fill="#4A7C59"/>
<path id="Vector_7" d="M204.483 276.385C203.713 277.375 203.273 278.575 203.213 279.825C203.383 281.505 204.483 282.945 206.043 283.575C207.583 284.175 209.243 284.425 210.893 284.325C217.613 284.265 224.253 282.915 230.463 280.345C233.413 279.125 236.353 277.565 238.223 274.975C240.093 272.395 240.613 268.615 238.633 266.075C235.013 261.435 225.663 263.175 220.833 264.535C214.133 266.395 208.333 270.605 204.483 276.385Z" fill="url(#paint3_linear_19_88)"/>
<path id="Vector_8" opacity="0.65" d="M216.023 268.035C214.553 268.955 213.133 269.965 211.793 271.055C210.543 272.035 209.303 273.025 208.153 274.115C207.003 275.205 205.883 276.505 205.863 278.095C205.903 279.415 206.573 280.635 207.663 281.375C208.743 282.105 209.973 282.575 211.263 282.755C216.833 283.745 222.573 282.085 227.853 279.985C229.443 279.355 230.993 278.685 232.513 277.935C233.333 277.565 234.103 277.095 234.813 276.545C236.933 274.765 237.803 271.915 237.053 269.255C236.903 268.735 236.663 268.245 236.333 267.805C235.463 266.685 234.103 266.415 232.813 266.075C231.823 265.805 230.953 265.275 229.973 264.975C227.253 264.175 223.693 264.975 221.063 265.775C219.303 266.315 217.613 267.075 216.033 268.025L216.023 268.035Z" fill="url(#paint4_linear_19_88)"/>
<path id="Vector_9" d="M210.703 273.665C210.423 273.745 210.173 273.895 209.953 274.095C209.743 274.375 209.613 274.715 209.593 275.065C209.403 276.705 209.813 278.355 210.743 279.715C211.003 280.155 211.413 280.495 211.893 280.665C212.233 280.745 212.573 280.745 212.913 280.665C213.923 280.515 214.913 280.305 215.893 280.035C216.323 279.935 216.733 279.775 217.113 279.555C217.793 279.065 218.333 278.415 218.703 277.665L220.613 274.355C220.883 273.995 220.993 273.555 220.943 273.115C220.843 272.845 220.663 272.605 220.433 272.435C219.473 271.515 218.283 270.515 216.973 270.775C216.073 270.945 215.383 271.715 214.583 272.125C213.373 272.745 211.963 273.115 210.693 273.655L210.703 273.665Z" fill="#4A7C59"/>
<path id="Vector_10" opacity="0.65" d="M210.703 273.665C210.423 273.745 210.173 273.895 209.953 274.095C209.743 274.375 209.613 274.715 209.593 275.065C209.403 276.705 209.813 278.355 210.743 279.715C211.003 280.155 211.413 280.495 211.893 280.665C212.233 280.745 212.573 280.745 212.913 280.665C213.923 280.515 214.913 280.305 215.893 280.035C216.323 279.935 216.733 279.775 217.113 279.555C217.793 279.065 218.333 278.415 218.703 277.665L220.613 274.355C220.883 273.995 220.993 273.555 220.943 273.115C220.843 272.845 220.663 272.605 220.433 272.435C219.473 271.515 218.283 270.515 216.973 270.775C216.073 270.945 215.383 271.715 214.583 272.125C213.373 272.745 211.963 273.115 210.693 273.655L210.703 273.665Z" fill="url(#paint5_linear_19_88)"/>
<path id="Vector_11" d="M217.563 272.345L215.793 273.025C215.403 273.175 214.993 273.395 214.923 273.825C214.853 274.255 215.253 274.545 215.593 274.775L216.393 275.305C216.643 275.495 216.933 275.645 217.233 275.735C217.543 275.825 217.883 275.715 218.083 275.455C218.223 275.185 218.263 274.865 218.183 274.575L217.893 272.575" fill="url(#paint6_linear_19_88)"/>
<path id="Vector_12" d="M213.923 275.005C213.383 274.675 212.683 274.795 212.283 275.295C211.913 275.795 211.813 276.455 212.033 277.035C212.263 277.605 212.623 278.115 213.083 278.525C213.483 278.925 213.993 279.205 214.543 279.325C215.113 279.435 215.703 279.165 215.973 278.645C216.083 278.335 216.083 277.995 215.973 277.695C215.623 276.395 214.383 275.615 213.193 274.955" fill="url(#paint7_linear_19_88)"/>
<path id="Vector_13" d="M216.613 289.615C216.393 289.985 216.313 290.425 216.393 290.845C216.453 292.725 217.223 294.515 218.543 295.855C219.873 297.085 221.723 297.585 223.313 298.395C225.213 299.375 226.833 300.815 228.033 302.585C228.213 302.815 228.313 303.095 228.323 303.385C228.263 303.645 228.123 303.885 227.933 304.065C226.753 305.495 225.443 306.805 224.003 307.975C222.663 308.985 220.973 309.955 220.783 311.615C220.553 313.535 222.503 314.935 224.193 315.905C225.143 316.425 226.043 316.945 226.963 317.495C227.603 317.855 228.353 318.435 228.133 319.145C227.023 319.375 225.893 319.595 224.783 319.795C222.893 320.155 220.913 320.515 219.123 319.795C217.513 319.045 216.263 317.685 215.643 316.025C215.063 314.365 214.693 312.635 214.533 310.885C214.333 309.295 214.113 307.705 213.913 306.115C213.873 305.105 213.583 304.125 213.073 303.255C212.763 302.905 212.483 302.535 212.233 302.145C211.743 301.135 212.333 299.905 212.093 298.765C212.093 298.695 212.093 298.595 211.993 298.535C212.973 298.865 214.693 298.795 215.113 297.945C212.723 295.965 209.363 296.225 207.803 292.845C207.393 291.785 207.123 290.665 207.003 289.525C206.713 287.405 206.423 285.325 206.133 283.205C210.133 283.715 214.173 283.905 218.203 283.765C222.353 283.525 226.423 282.605 230.273 281.025C230.133 283.415 227.603 284.775 225.423 285.675C222.823 286.745 220.253 287.855 217.653 288.925C217.253 289.045 216.893 289.275 216.623 289.595L216.613 289.615Z" fill="url(#paint8_linear_19_88)"/>
</g>
<g id="organic_recycling-4-19">
<path id="Vector_14" d="M97.0028 250.865C95.1728 247.345 92.3428 244.445 88.8628 242.525C85.3928 240.625 81.6328 239.305 77.7228 238.625C77.2928 245.815 81.4328 252.505 88.0628 255.325C90.4528 256.275 93.0428 256.665 95.3928 257.715C97.8828 258.705 99.7328 260.855 100.333 263.465C100.943 261.875 100.123 260.185 99.6128 258.695C98.7928 256.085 98.2128 253.355 96.9928 250.865H97.0028Z" fill="#4A7C59"/>
<path id="Vector_15" d="M97.0028 250.865C95.1728 247.345 92.3428 244.445 88.8628 242.525C85.3928 240.625 81.6328 239.305 77.7228 238.625C77.2928 245.815 81.4328 252.505 88.0628 255.325C90.4528 256.275 93.0428 256.665 95.3928 257.715C97.8828 258.705 99.7328 260.855 100.333 263.465C100.943 261.875 100.123 260.185 99.6128 258.695C98.7928 256.085 98.2128 253.355 96.9928 250.865H97.0028Z" fill="url(#paint9_linear_19_88)"/>
<path id="Vector_16" d="M102.023 264.235C98.8428 263.575 95.7928 262.235 92.6528 261.305C89.5128 260.375 86.1028 259.885 83.0028 260.965C79.0228 262.355 76.2928 266.095 74.4828 269.925C70.2928 278.915 69.7228 289.165 72.8928 298.555C74.3528 302.835 77.0728 307.245 81.4628 308.335C83.6028 308.865 85.9128 308.545 88.0128 309.195C90.1228 309.845 91.8028 311.435 93.8028 312.375C98.2028 314.455 103.613 313.175 107.573 310.335C111.533 307.495 114.323 303.375 116.963 299.285C115.623 296.935 115.623 294.045 116.963 291.685C116.183 292.265 115.133 292.335 114.273 291.885C113.433 291.415 112.773 290.695 112.373 289.825C110.523 286.165 111.983 281.705 115.643 279.855C115.873 279.735 116.113 279.635 116.353 279.545C115.433 278.025 115.433 276.135 116.353 274.615C117.283 273.145 118.473 271.865 119.873 270.825C116.663 267.385 112.113 265.505 107.413 265.665C105.563 265.755 103.873 264.615 102.033 264.235H102.023Z" fill="#4A7C59"/>
<path id="Vector_17" d="M102.023 264.235C98.8428 263.575 95.7928 262.235 92.6528 261.305C89.5128 260.375 86.1028 259.885 83.0028 260.965C79.0228 262.355 76.2928 266.095 74.4828 269.925C70.2928 278.915 69.7228 289.165 72.8928 298.555C74.3528 302.835 77.0728 307.245 81.4628 308.335C83.6028 308.865 85.9128 308.545 88.0128 309.195C90.1228 309.845 91.8028 311.435 93.8028 312.375C98.2028 314.455 103.613 313.175 107.573 310.335C111.533 307.495 114.323 303.375 116.963 299.285C115.623 296.935 115.623 294.045 116.963 291.685C116.183 292.265 115.133 292.335 114.273 291.885C113.433 291.415 112.773 290.695 112.373 289.825C110.523 286.165 111.983 281.705 115.643 279.855C115.873 279.735 116.113 279.635 116.353 279.545C115.433 278.025 115.433 276.135 116.353 274.615C117.283 273.145 118.473 271.865 119.873 270.825C116.663 267.385 112.113 265.505 107.413 265.665C105.563 265.755 103.873 264.615 102.033 264.235H102.023Z" fill="url(#paint10_linear_19_88)"/>
</g>
<path id="Vector_18" d="M202.023 303.015C202.093 304.635 201.363 306.185 200.063 307.155L180.583 321.555C179.753 322.185 178.733 322.525 177.693 322.525C175.003 322.545 172.803 320.375 172.783 317.675C172.783 316.105 173.523 314.625 174.793 313.695L180.323 309.595C177.043 309.795 173.753 309.925 170.473 309.925C157.293 309.935 144.173 308.105 131.503 304.495C128.933 303.705 127.493 300.985 128.273 298.415C129.043 295.915 131.633 294.475 134.163 295.135C149.693 299.525 165.893 301.055 181.963 299.655L175.143 295.475C172.883 294.015 172.233 290.995 173.693 288.735C175.103 286.555 177.963 285.865 180.213 287.145L199.663 299.075C201.053 299.915 201.943 301.385 202.013 303.015H202.023Z" fill="#4A7C59"/>
<path id="Vector_19" d="M299.353 229.975L298.443 254.165C298.343 256.785 296.193 258.875 293.563 258.885H293.363C290.673 258.775 288.583 256.505 288.683 253.815L288.933 246.825C287.083 249.565 285.103 252.225 283.013 254.825C274.803 265.125 265.193 274.225 254.463 281.865C253.643 282.465 252.643 282.775 251.633 282.775C248.943 282.755 246.773 280.545 246.803 277.855C246.813 276.295 247.573 274.845 248.833 273.935C258.823 266.815 267.763 258.335 275.403 248.735C277.793 245.745 280.083 242.615 282.203 239.425L274.653 242.165C272.093 243.045 269.313 241.685 268.443 239.125C267.583 236.625 268.873 233.895 271.343 232.965L292.813 225.225C294.323 224.655 296.023 224.885 297.333 225.835C298.643 226.805 299.393 228.355 299.343 229.975H299.353Z" fill="#4A7C59"/>
<path id="Vector_20" d="M315.673 121.565C314.043 123.715 310.983 124.135 308.843 122.505L303.273 118.315C304.413 121.405 305.453 124.555 306.403 127.705C310.123 140.355 312.083 153.445 312.223 166.635C312.223 169.325 310.063 171.515 307.373 171.555C304.693 171.575 302.513 169.415 302.493 166.745C302.493 166.735 302.493 166.715 302.493 166.705C302.363 154.435 300.533 142.245 297.063 130.485C296.003 126.815 294.763 123.165 293.353 119.555L291.233 127.325C290.673 129.475 288.723 130.955 286.503 130.935C286.063 130.935 285.623 130.875 285.203 130.775C282.613 130.065 281.083 127.395 281.783 124.795C281.783 124.795 281.783 124.795 281.783 124.785L287.703 102.735C288.423 100.135 291.113 98.6148 293.713 99.3248C294.303 99.4848 294.863 99.7647 295.353 100.125L314.663 114.725C316.833 116.335 317.283 119.395 315.673 121.555V121.565Z" fill="#4A7C59"/>
<path id="Vector_21" d="M249.853 56.3248C248.933 57.6448 247.433 58.4348 245.823 58.4448C244.843 58.4448 243.873 58.1448 243.053 57.6048C232.923 50.6748 221.883 45.1848 210.243 41.2748C206.603 40.0448 202.863 38.9647 199.103 38.0947L204.303 44.2748C206.033 46.3448 205.763 49.4247 203.713 51.1747C202.813 51.9047 201.693 52.3047 200.533 52.3147C199.083 52.3147 197.713 51.6748 196.793 50.5548L182.123 33.0548C180.393 30.9948 180.663 27.9147 182.733 26.1847C183.213 25.7847 183.773 25.4747 184.363 25.2847L207.433 17.8348C210.013 17.0748 212.723 18.5647 213.483 21.1447C214.203 23.6147 212.883 26.2247 210.463 27.0947L203.863 29.2448C207.043 30.0448 210.223 31.0348 213.363 32.0748C225.853 36.2448 237.713 42.1348 248.573 49.5748C250.763 51.1048 251.323 54.1148 249.843 56.3348L249.853 56.3248Z" fill="#4A7C59"/>
<path id="Vector_22" d="M107.353 51.6447C96.6029 57.5447 86.7229 64.9047 77.9829 73.5047C75.2529 76.2047 72.6229 79.0747 70.1129 81.9547L77.9429 80.1347C80.5629 79.4947 83.1929 81.1047 83.8329 83.7147C84.4729 86.3347 82.8629 88.9647 80.2529 89.6047C80.2229 89.6047 80.1929 89.6247 80.1529 89.6247L57.9429 94.8247C57.5829 94.8947 57.2129 94.9447 56.8329 94.9547C54.1429 94.9547 51.9629 92.7847 51.9529 90.0947C51.9529 89.8247 51.9729 89.5647 52.0129 89.2947L55.7229 65.4347C56.1529 62.7847 58.6329 60.9747 61.2929 61.3747C63.9429 61.7747 65.7629 64.2347 65.3629 66.8847C65.3629 66.9047 65.3629 66.9247 65.3629 66.9447L64.2929 73.8747C66.4429 71.3647 68.7129 68.9547 71.0929 66.6247C80.4629 57.3647 91.0829 49.4547 102.633 43.1147C104.973 41.7747 107.953 42.5847 109.283 44.9247C110.613 47.2647 109.813 50.2447 107.473 51.5747C107.423 51.6047 107.363 51.6347 107.313 51.6647L107.333 51.6447H107.353Z" fill="#4A7C59"/>
<path id="Vector_23" d="M68.8229 228.315L67.5229 251.075C67.3729 253.655 65.2329 255.665 62.6429 255.665C61.9229 255.665 61.2129 255.505 60.5629 255.205L38.6729 244.865C36.2729 243.635 35.3229 240.685 36.5529 238.275C37.7329 235.985 40.4729 235.005 42.8329 236.015L49.1429 239.005C47.3529 236.215 45.6929 233.345 44.1329 230.425C37.9129 218.835 33.3329 206.435 30.5129 193.595C29.9329 190.955 31.6029 188.355 34.2429 187.785C36.8829 187.215 39.4829 188.875 40.0529 191.515C42.6829 203.505 46.9729 215.065 52.7829 225.885C54.5929 229.275 56.5529 232.585 58.6729 235.775L59.1229 227.775C59.2829 225.085 61.6029 223.035 64.2929 223.195C66.9829 223.355 69.0329 225.675 68.8729 228.365L68.8129 228.325L68.8229 228.315Z" fill="#4A7C59"/>
<g id="plastic_recycling-4-19">
<path id="Vector_24" d="M177.043 49.8548C176.063 48.5148 174.773 47.4648 173.863 46.0748C171.683 42.7548 171.943 38.5048 171.353 34.5648C170.123 26.9348 165.483 20.2848 158.743 16.5148C156.763 15.4448 154.643 14.5948 152.763 13.3348C148.623 10.6348 146.063 6.17475 143.533 1.92475C143.193 1.19475 142.643 0.57476 141.943 0.16476C140.543 -0.44524 138.853 0.844753 138.533 2.34475C138.203 3.84475 138.823 5.43476 139.483 6.83476C140.133 8.23476 140.903 9.69476 140.873 11.2548C140.813 14.1148 138.173 16.1347 135.763 17.6847C132.193 19.9947 128.543 22.1748 124.813 24.2248C124.603 24.3748 124.353 24.4648 124.093 24.4848C123.243 24.6148 122.693 23.6348 122.333 22.8548C121.583 20.7948 120.503 18.8648 119.153 17.1348C117.773 15.3848 115.693 14.3248 113.463 14.2348C113.123 14.2048 112.793 14.3248 112.553 14.5648C112.453 14.7648 112.393 14.9848 112.393 15.2048C111.673 26.3448 116.373 34.9748 122.173 43.9548C125.103 48.5348 125.783 54.1548 127.513 59.3248C129.243 64.4948 132.913 69.7348 138.303 70.3848C140.693 70.6748 142.953 70.0348 145.233 69.4148C155.573 66.5548 166.173 63.6248 175.253 57.7748C176.553 56.9348 177.913 55.8848 178.373 54.3948C178.823 52.8948 178.063 51.1348 177.053 49.8348L177.043 49.8548ZM118.773 31.6448C116.653 31.3848 115.723 26.8748 115.263 25.2848L114.283 21.6748C114.123 21.1848 114.053 20.6648 114.093 20.1448C114.133 19.6248 114.463 19.1748 114.933 18.9648C115.773 18.7148 116.523 19.5548 117.013 20.3048C118.053 21.9548 119.133 23.6548 120.193 25.3148C120.603 25.8548 120.923 26.4548 121.143 27.0948C121.573 28.4548 120.853 31.9048 118.773 31.6448ZM147.553 15.9048C147.063 15.7748 146.663 15.4248 146.443 14.9648C145.593 13.6048 144.873 12.1648 144.293 10.6748C143.903 9.69476 142.703 7.32476 143.183 6.28476C143.543 5.56476 143.673 5.95476 143.933 6.47476C144.323 7.27476 144.613 8.06476 145.073 8.78476C145.983 10.2448 147.113 11.5748 148.063 13.0048C148.443 13.5048 148.653 14.1048 148.683 14.7348C148.703 15.3648 148.203 15.8848 147.573 15.9048C147.563 15.9048 147.553 15.9048 147.543 15.9048H147.553Z" fill="#4A7C59"/>
<path id="Vector_25" opacity="0.65" d="M177.043 49.8548C176.063 48.5148 174.773 47.4648 173.863 46.0748C171.683 42.7548 171.943 38.5047 171.353 34.5647C170.123 26.9347 165.483 20.2847 158.743 16.5147C156.763 15.4447 154.643 14.5948 152.763 13.3348C150.683 11.9248 148.883 10.1347 147.453 8.06475C147.063 7.54475 146.703 7.02475 146.343 6.47475C145.343 4.97475 144.423 3.44475 143.523 1.91475C143.183 1.18475 142.633 0.56475 141.933 0.15475C140.533 -0.45525 138.843 0.83475 138.523 2.33475C138.203 3.83475 138.813 5.42476 139.473 6.82476C140.123 8.22476 140.893 9.68475 140.863 11.2448C140.803 14.1048 138.163 16.1247 135.753 17.6747C132.183 19.9847 128.533 22.1648 124.803 24.2148C124.593 24.3648 124.343 24.4547 124.083 24.4747C123.233 24.6047 122.683 23.6247 122.323 22.8447C121.573 20.7847 120.493 18.8547 119.143 17.1247C117.763 15.3747 115.683 14.3147 113.453 14.2247C113.113 14.1947 112.783 14.3148 112.543 14.5548C112.443 14.7548 112.383 14.9748 112.383 15.1948C111.663 26.3348 116.363 34.9648 122.163 43.9448C125.093 48.5248 125.773 54.1447 127.503 59.3147C129.233 64.4847 132.903 69.7247 138.293 70.3747C140.683 70.6647 142.943 70.0247 145.223 69.4047C155.203 66.6347 165.353 63.8348 174.163 58.4148C174.223 58.4148 174.263 58.3548 174.293 58.3548L175.243 57.7647C176.543 56.9247 177.903 55.8748 178.363 54.3848C178.813 52.8848 178.053 51.1248 177.043 49.8248V49.8548ZM118.773 31.6447C116.653 31.3847 115.723 26.8747 115.263 25.2847L114.283 21.6747C114.123 21.1847 114.053 20.6647 114.093 20.1447C114.133 19.6247 114.463 19.1748 114.933 18.9648C115.773 18.7148 116.523 19.5548 117.013 20.3048C118.053 21.9548 119.133 23.6547 120.193 25.3147C120.603 25.8547 120.923 26.4547 121.143 27.0947C121.573 28.4547 120.853 31.9047 118.773 31.6447ZM146.443 14.9448C145.593 13.5848 144.873 12.1447 144.293 10.6547C143.903 9.67474 142.703 7.30474 143.183 6.26474C143.543 5.54474 143.673 5.93475 143.933 6.45475C144.323 7.25475 144.613 8.04474 145.073 8.76474C145.523 9.48474 146.183 10.3547 146.723 11.1547C147.183 11.7747 147.633 12.3647 148.023 12.9747C148.403 13.4747 148.613 14.0747 148.643 14.7047C148.663 15.3347 148.163 15.8547 147.533 15.8747C147.523 15.8747 147.513 15.8747 147.503 15.8747C147.433 15.8747 147.363 15.8447 147.303 15.8147H147.243C146.893 15.6247 146.603 15.3347 146.433 14.9747V14.9547L146.443 14.9448Z" fill="url(#paint11_linear_19_88)"/>
<path id="Vector_26" d="M178.333 54.4047C177.883 55.9047 176.513 56.9447 175.213 57.7847L174.263 58.3747C174.263 58.3747 174.203 58.3747 174.133 58.4347C173.803 58.5947 173.453 58.7247 173.093 58.8847C171.493 56.8647 170.433 54.4647 170.003 51.9247C169.643 52.5747 168.663 52.1547 168.113 51.6747C165.603 49.3947 163.043 47.0547 161.703 43.9247C159.233 38.1147 161.613 30.5347 157.523 25.5547C154.923 22.3747 150.173 21.1047 147.863 18.0147C147.413 17.4547 147.073 16.8347 146.833 16.1647C147.033 16.0947 147.203 15.9847 147.353 15.8347C147.973 15.1847 147.873 13.8147 147.483 12.8747C147.263 12.3147 146.963 11.7347 146.763 11.1847C146.513 10.6447 146.423 10.0547 146.513 9.46474C146.643 8.90474 146.973 8.41473 147.453 8.09473C148.883 10.1647 150.683 11.9447 152.763 13.3647C154.653 14.6047 156.743 15.4447 158.743 16.5447C165.483 20.3147 170.133 26.9647 171.353 34.5947C171.943 38.5747 171.683 42.7847 173.863 46.1047C174.773 47.4747 176.073 48.5447 177.043 49.8847C178.013 51.2247 178.763 52.8147 178.333 54.4147V54.4047Z" fill="url(#paint12_linear_19_88)"/>
</g>
<g id="cardbox_recycling-4-19">
<path id="Vector_27" d="M249.173 61.0748L272.093 54.4847L298.443 61.6547L298.993 88.7647L279.483 100.975L248.323 90.4247L249.173 61.0748Z" fill="#4A7C59"/>
<path id="Vector_28" d="M279.233 68.1247L298.443 61.6547L298.993 88.7647L279.733 99.3947L279.233 68.1247Z" fill="url(#paint13_linear_19_88)"/>
<path id="Vector_29" d="M284.813 61.3647L280.863 62.6247L287.003 65.2547L287.393 69.9447L291.733 69.2247L291.843 63.4648L284.813 61.3647Z" fill="url(#paint14_linear_19_88)"/>
<path id="Vector_30" d="M250.343 62.0447L279.233 68.1247L279.733 99.3947L248.513 89.0748L250.343 62.0447Z" fill="url(#paint15_linear_19_88)"/>
<path id="Vector_31" d="M263.183 56.9348L289.853 64.5948L279.233 68.1248L249.173 61.0748L263.183 56.9348Z" fill="url(#paint16_linear_19_88)"/>
</g>
<g id="paper_recycling-4-19">
<path id="Vector_32" d="M42.4628 108.935C28.7828 108.865 15.1228 109.795 1.59283 111.735C0.762835 111.715 0.0828337 112.365 0.0528337 113.185C0.0528337 113.305 0.0528325 113.425 0.0828325 113.545C-0.287167 119.615 0.662835 125.675 1.34283 131.715C2.86283 145.025 3.11284 158.455 3.28284 171.855C3.25284 172.205 3.33283 172.545 3.51283 172.845C3.74283 173.075 4.04284 173.225 4.36284 173.275C9.70284 174.605 15.3028 173.515 20.6828 172.435L33.3328 169.885C34.8528 169.585 36.5128 169.165 37.3728 167.855C37.8528 166.945 38.0728 165.915 38.0128 164.885C38.3028 156.635 38.2428 148.385 37.8528 140.125C37.6428 138.085 37.7528 136.025 38.1828 134.015C38.5628 132.755 39.0728 131.535 39.7128 130.385C41.3428 127.155 43.6028 124.125 43.5528 120.455C43.5128 119.425 42.8328 108.865 42.4428 108.925L42.4628 108.935Z" fill="#4A7C59"/>
<path id="Vector_33" d="M42.4628 108.935C28.7828 108.865 15.1228 109.795 1.59283 111.735C0.762835 111.715 0.0828337 112.365 0.0528337 113.185C0.0528337 113.305 0.0528325 113.425 0.0828325 113.545C-0.287167 119.615 0.662835 125.675 1.34283 131.715C2.86283 145.025 3.11284 158.455 3.28284 171.855C3.25284 172.205 3.33283 172.545 3.51283 172.845C3.74283 173.075 4.04284 173.225 4.36284 173.275C9.70284 174.605 15.3028 173.515 20.6828 172.435L33.3328 169.885C34.8528 169.585 36.5128 169.165 37.3728 167.855C37.8528 166.945 38.0728 165.915 38.0128 164.885C38.3028 156.635 38.2428 148.385 37.8528 140.125C37.6428 138.085 37.7528 136.025 38.1828 134.015C38.5628 132.755 39.0728 131.535 39.7128 130.385C41.3428 127.155 43.6028 124.125 43.5528 120.455C43.5128 119.425 42.8328 108.865 42.4428 108.925L42.4628 108.935Z" fill="url(#paint17_linear_19_88)"/>
<path id="Vector_34" d="M33.3828 98.0248L77.6928 118.495L47.2128 181.725L4.04285 160.175L33.3828 98.0248Z" fill="#4A7C59"/>
<path id="Vector_35" opacity="0.65" d="M33.1928 98.0248L77.5128 118.495L47.0328 181.725L3.85284 160.175L33.1928 98.0248Z" fill="url(#paint18_linear_19_88)"/>
<path id="Vector_36" d="M37.7429 107.715C40.6929 108.515 43.3129 110.265 46.0129 111.695C53.1729 115.455 61.3429 117.345 67.8229 122.175" stroke="#231F20" stroke-width="0.92" stroke-miterlimit="10"/>
<path id="Vector_37" d="M35.7628 114.095C38.7228 114.895 41.3328 116.635 44.0428 118.075C51.2028 121.835 59.3728 123.725 65.8528 128.555" stroke="#231F20" stroke-width="0.92" stroke-miterlimit="10"/>
<path id="Vector_38" d="M32.3928 122.445C35.3428 123.245 37.9628 124.995 40.6628 126.425C47.8228 130.185 55.9928 132.075 62.4828 136.905" stroke="#231F20" stroke-width="0.92" stroke-miterlimit="10"/>
<path id="Vector_39" d="M29.0228 130.795C31.9728 131.595 34.5928 133.345 37.2928 134.775C44.4528 138.535 52.6228 140.435 59.1028 145.255" stroke="#231F20" stroke-width="0.92" stroke-miterlimit="10"/>
<path id="Vector_40" d="M25.6428 139.155C28.5928 139.955 31.2128 141.695 33.9128 143.135C41.0728 146.895 49.2428 148.785 55.7328 153.615" stroke="#231F20" stroke-width="0.92" stroke-miterlimit="10"/>
<path id="Vector_41" d="M22.2728 147.505C25.2228 148.305 27.8428 150.045 30.5428 151.485C37.7028 155.245 45.8728 157.135 52.3528 161.965" stroke="#231F20" stroke-width="0.92" stroke-miterlimit="10"/>
<path id="Vector_42" d="M18.8928 155.855C21.8428 156.655 24.4628 158.405 27.1628 159.835C34.3228 163.595 42.4928 165.495 48.9728 170.315" stroke="#231F20" stroke-width="0.92" stroke-miterlimit="10"/>
</g>
</g>
<defs>
<linearGradient id="paint0_linear_19_88" x1="222.833" y1="296.935" x2="242.373" y2="294.495" gradientUnits="userSpaceOnUse">
<stop stop-color="white" stop-opacity="0"/>
<stop offset="0.07" stop-color="white" stop-opacity="0.22"/>
<stop offset="0.16" stop-color="white" stop-opacity="0.45"/>
<stop offset="0.25" stop-color="white" stop-opacity="0.65"/>
<stop offset="0.33" stop-color="white" stop-opacity="0.8"/>
<stop offset="0.4" stop-color="white" stop-opacity="0.91"/>
<stop offset="0.46" stop-color="white" stop-opacity="0.98"/>
<stop offset="0.51" stop-color="white"/>
<stop offset="0.56" stop-color="white" stop-opacity="0.98"/>
<stop offset="0.62" stop-color="white" stop-opacity="0.91"/>
<stop offset="0.69" stop-color="white" stop-opacity="0.8"/>
<stop offset="0.76" stop-color="white" stop-opacity="0.65"/>
<stop offset="0.84" stop-color="white" stop-opacity="0.46"/>
<stop offset="0.93" stop-color="white" stop-opacity="0.23"/>
<stop offset="1" stop-color="white" stop-opacity="0"/>
</linearGradient>
<linearGradient id="paint1_linear_19_88" x1="227.953" y1="290.945" x2="196.823" y2="325.055" gradientUnits="userSpaceOnUse">
<stop stop-color="#010101" stop-opacity="0"/>
<stop offset="0.95" stop-color="#010101"/>
</linearGradient>
<linearGradient id="paint2_linear_19_88" x1="231.073" y1="297.965" x2="301.113" y2="309.875" gradientUnits="userSpaceOnUse">
<stop stop-color="#010101" stop-opacity="0"/>
<stop offset="0.95" stop-color="#010101"/>
</linearGradient>
<linearGradient id="paint3_linear_19_88" x1="213.843" y1="254.155" x2="239.783" y2="322.525" gradientUnits="userSpaceOnUse">
<stop stop-color="white" stop-opacity="0"/>
<stop offset="0.95" stop-color="white"/>
</linearGradient>
<linearGradient id="paint4_linear_19_88" x1="205.863" y1="273.865" x2="237.313" y2="273.865" gradientUnits="userSpaceOnUse">
<stop stop-color="white" stop-opacity="0"/>
<stop offset="0.07" stop-color="white" stop-opacity="0.22"/>
<stop offset="0.16" stop-color="white" stop-opacity="0.45"/>
<stop offset="0.25" stop-color="white" stop-opacity="0.65"/>
<stop offset="0.33" stop-color="white" stop-opacity="0.8"/>
<stop offset="0.4" stop-color="white" stop-opacity="0.91"/>
<stop offset="0.46" stop-color="white" stop-opacity="0.98"/>
<stop offset="0.51" stop-color="white"/>
<stop offset="0.56" stop-color="white" stop-opacity="0.98"/>
<stop offset="0.62" stop-color="white" stop-opacity="0.91"/>
<stop offset="0.69" stop-color="white" stop-opacity="0.8"/>
<stop offset="0.76" stop-color="white" stop-opacity="0.65"/>
<stop offset="0.84" stop-color="white" stop-opacity="0.46"/>
<stop offset="0.93" stop-color="white" stop-opacity="0.23"/>
<stop offset="1" stop-color="white" stop-opacity="0"/>
</linearGradient>
<linearGradient id="paint5_linear_19_88" x1="214.013" y1="272.895" x2="216.303" y2="277.355" gradientUnits="userSpaceOnUse">
<stop stop-color="white" stop-opacity="0"/>
<stop offset="0.07" stop-color="white" stop-opacity="0.22"/>
<stop offset="0.16" stop-color="white" stop-opacity="0.45"/>
<stop offset="0.25" stop-color="white" stop-opacity="0.65"/>
<stop offset="0.33" stop-color="white" stop-opacity="0.8"/>
<stop offset="0.4" stop-color="white" stop-opacity="0.91"/>
<stop offset="0.46" stop-color="white" stop-opacity="0.98"/>
<stop offset="0.51" stop-color="white"/>
<stop offset="0.56" stop-color="white" stop-opacity="0.98"/>
<stop offset="0.62" stop-color="white" stop-opacity="0.91"/>
<stop offset="0.69" stop-color="white" stop-opacity="0.8"/>
<stop offset="0.76" stop-color="white" stop-opacity="0.65"/>
<stop offset="0.84" stop-color="white" stop-opacity="0.46"/>
<stop offset="0.93" stop-color="white" stop-opacity="0.23"/>
<stop offset="1" stop-color="white" stop-opacity="0"/>
</linearGradient>
<linearGradient id="paint6_linear_19_88" x1="213.373" y1="268.745" x2="231.453" y2="296.215" gradientUnits="userSpaceOnUse">
<stop stop-color="#010101" stop-opacity="0"/>
<stop offset="0.95" stop-color="#010101"/>
</linearGradient>
<linearGradient id="paint7_linear_19_88" x1="209.883" y1="271.045" x2="227.963" y2="298.505" gradientUnits="userSpaceOnUse">
<stop stop-color="#010101" stop-opacity="0"/>
<stop offset="0.95" stop-color="#010101"/>
</linearGradient>
<linearGradient id="paint8_linear_19_88" x1="235.423" y1="297.525" x2="85.4929" y2="327.515" gradientUnits="userSpaceOnUse">
<stop stop-color="#010101" stop-opacity="0"/>
<stop offset="0.95" stop-color="#010101"/>
</linearGradient>
<linearGradient id="paint9_linear_19_88" x1="86.2928" y1="247.195" x2="107.823" y2="267.115" gradientUnits="userSpaceOnUse">
<stop stop-color="#010101" stop-opacity="0"/>
<stop offset="0.95" stop-color="#010101"/>
</linearGradient>
<linearGradient id="paint10_linear_19_88" x1="102.043" y1="278.305" x2="40.0828" y2="340.565" gradientUnits="userSpaceOnUse">
<stop stop-color="#010101" stop-opacity="0"/>
<stop offset="0.95" stop-color="#010101"/>
</linearGradient>
<linearGradient id="paint11_linear_19_88" x1="112.313" y1="35.2547" x2="178.503" y2="35.2547" gradientUnits="userSpaceOnUse">
<stop stop-color="white" stop-opacity="0"/>
<stop offset="0.07" stop-color="white" stop-opacity="0.22"/>
<stop offset="0.16" stop-color="white" stop-opacity="0.45"/>
<stop offset="0.25" stop-color="white" stop-opacity="0.65"/>
<stop offset="0.33" stop-color="white" stop-opacity="0.8"/>
<stop offset="0.4" stop-color="white" stop-opacity="0.91"/>
<stop offset="0.46" stop-color="white" stop-opacity="0.98"/>
<stop offset="0.51" stop-color="white"/>
<stop offset="0.56" stop-color="white" stop-opacity="0.98"/>
<stop offset="0.62" stop-color="white" stop-opacity="0.91"/>
<stop offset="0.69" stop-color="white" stop-opacity="0.8"/>
<stop offset="0.76" stop-color="white" stop-opacity="0.65"/>
<stop offset="0.84" stop-color="white" stop-opacity="0.46"/>
<stop offset="0.93" stop-color="white" stop-opacity="0.23"/>
<stop offset="1" stop-color="white" stop-opacity="0"/>
</linearGradient>
<linearGradient id="paint12_linear_19_88" x1="175.553" y1="31.7447" x2="-260.277" y2="81.6547" gradientUnits="userSpaceOnUse">
<stop stop-color="#010101" stop-opacity="0"/>
<stop offset="0.41" stop-color="#010101" stop-opacity="0.41"/>
<stop offset="0.95" stop-color="#010101"/>
</linearGradient>
<linearGradient id="paint13_linear_19_88" x1="278.683" y1="83.4347" x2="379.093" y2="55.3547" gradientUnits="userSpaceOnUse">
<stop stop-color="#010101" stop-opacity="0"/>
<stop offset="0.95" stop-color="#010101"/>
</linearGradient>
<linearGradient id="paint14_linear_19_88" x1="286.303" y1="54.3447" x2="286.453" y2="82.4247" gradientUnits="userSpaceOnUse">
<stop stop-color="white" stop-opacity="0"/>
<stop offset="0.95" stop-color="white"/>
</linearGradient>
<linearGradient id="paint15_linear_19_88" x1="267.983" y1="54.7647" x2="247.833" y2="232.395" gradientUnits="userSpaceOnUse">
<stop stop-color="#010101" stop-opacity="0"/>
<stop offset="0.95" stop-color="#010101"/>
</linearGradient>
<linearGradient id="paint16_linear_19_88" x1="285.793" y1="56.1948" x2="177.533" y2="100.365" gradientUnits="userSpaceOnUse">
<stop stop-color="#010101" stop-opacity="0"/>
<stop offset="0.95" stop-color="#010101"/>
</linearGradient>
<linearGradient id="paint17_linear_19_88" x1="9.23283" y1="137.795" x2="74.5428" y2="153.065" gradientUnits="userSpaceOnUse">
<stop stop-color="#010101" stop-opacity="0"/>
<stop offset="0.95" stop-color="#010101"/>
</linearGradient>
<linearGradient id="paint18_linear_19_88" x1="1.66284" y1="134.275" x2="92.7629" y2="147.545" gradientUnits="userSpaceOnUse">
<stop stop-color="white" stop-opacity="0"/>
<stop offset="0.07" stop-color="white" stop-opacity="0.22"/>
<stop offset="0.16" stop-color="white" stop-opacity="0.45"/>
<stop offset="0.25" stop-color="white" stop-opacity="0.65"/>
<stop offset="0.33" stop-color="white" stop-opacity="0.8"/>
<stop offset="0.4" stop-color="white" stop-opacity="0.91"/>
<stop offset="0.46" stop-color="white" stop-opacity="0.98"/>
<stop offset="0.51" stop-color="white"/>
<stop offset="0.56" stop-color="white" stop-opacity="0.98"/>
<stop offset="0.62" stop-color="white" stop-opacity="0.91"/>
<stop offset="0.69" stop-color="white" stop-opacity="0.8"/>
<stop offset="0.76" stop-color="white" stop-opacity="0.65"/>
<stop offset="0.84" stop-color="white" stop-opacity="0.46"/>
<stop offset="0.93" stop-color="white" stop-opacity="0.23"/>
<stop offset="1" stop-color="white" stop-opacity="0"/>
</linearGradient>
</defs>
</svg>
