<svg width="106" height="150" viewBox="0 0 106 150" fill="none" xmlns="http://www.w3.org/2000/svg">
<g id="tree">
<path id="Vector" d="M24.7937 75.983C15.7937 79.603 4.26368 74.153 1.35368 64.893C-1.55632 55.633 4.76367 44.573 14.2237 42.393C11.4637 36.113 15.4437 28.523 21.2837 24.893C27.1237 21.263 34.2537 20.713 41.0937 20.223C37.0337 15.133 37.8637 7.71301 42.9637 3.64301C47.3837 0.113008 53.6837 0.223017 57.9837 3.90302C64.3937 -1.57698 74.0337 -0.826985 79.5137 5.57302C81.3837 7.76302 82.6037 10.433 83.0237 13.283C86.2037 13.083 89.0337 15.673 90.1837 18.653C91.3337 21.633 91.1337 24.923 90.9337 28.103C102.164 32.113 108.014 44.463 104.014 55.683C102.334 60.403 99.0637 64.383 94.7637 66.953C99.3737 72.303 98.7737 80.373 93.4337 84.983C90.8437 87.223 87.4637 88.323 84.0437 88.043C85.5637 94.003 80.2437 100.653 74.1037 100.483C69.1037 100.343 65.4037 96.713 60.7937 95.373C55.5537 93.853 51.7637 96.813 46.6337 96.293C36.9537 95.313 22.4737 87.433 24.7937 75.973V75.983Z" fill="#4A7C59"/>
<path id="Vector_2" d="M45.7837 79.873C45.8037 78.983 45.6537 78.103 45.3637 77.273C44.6837 75.623 42.9737 74.663 41.4437 73.823C39.3337 72.813 37.3637 71.513 35.5937 69.983C33.8137 68.413 32.7637 66.183 32.6937 63.813C32.7737 63.333 32.7037 62.843 32.5137 62.403C32.1437 61.803 31.3337 61.733 30.6637 61.603C27.4037 60.803 26.1137 56.313 27.7537 53.383C29.3937 50.453 32.9937 49.083 36.3637 49.093C38.2237 49.063 40.0637 49.493 41.7237 50.353C45.4337 52.383 47.3537 56.783 51.0737 58.803C51.5237 59.193 52.2037 59.153 52.6037 58.703C52.6837 58.613 52.7537 58.503 52.7937 58.393C54.1637 56.313 54.8737 53.663 56.9437 52.293C58.6137 51.303 60.6637 51.133 62.4737 51.843C64.2537 52.563 65.8537 53.663 67.1537 55.083C67.6737 55.873 68.7237 56.093 69.5137 55.573C69.7137 55.443 69.8737 55.273 70.0037 55.083C72.5537 53.133 75.6737 51.633 78.8637 51.993C82.0537 52.363 85.0837 55.173 84.8037 58.353C84.5237 60.133 83.6437 61.753 82.3037 62.963C80.3737 64.903 78.0037 66.353 75.4037 67.193C77.3737 70.403 76.3737 74.603 73.1637 76.573C71.3137 77.703 69.0437 77.893 67.0337 77.083C67.0337 80.293 64.9137 83.113 61.8237 83.983C62.8037 83.733 60.1837 91.373 59.7037 92.013C58.1137 94.053 55.5437 96.053 52.8237 95.723C45.8037 94.833 45.9437 84.933 45.8037 79.893L45.7837 79.873Z" fill="url(#paint0_linear_19_70)"/>
<path id="Vector_3" d="M50.1337 77.723C50.1737 75.963 49.8537 74.223 49.2137 72.583C48.2437 70.543 46.3337 69.143 44.4937 67.813L35.2737 61.233C32.6937 59.383 29.3437 57.793 27.2437 55.423C26.8937 55.093 26.6537 54.643 26.5737 54.163C26.5137 53.673 26.8737 53.233 27.3637 53.173C27.3637 53.173 27.3637 53.173 27.3737 53.173C27.5437 53.203 27.7137 53.263 27.8637 53.343C31.5937 55.293 35.0537 57.743 38.1237 60.633C38.4937 60.973 39.0637 61.343 39.4537 61.013C39.6037 60.863 39.6937 60.673 39.7237 60.463C40.1337 58.583 39.6037 56.633 39.5837 54.723C39.5437 54.313 39.6337 53.893 39.8637 53.543C40.1037 53.223 40.5537 53.153 40.8737 53.393C40.8937 53.403 40.9137 53.423 40.9237 53.433C41.0237 53.593 41.0837 53.763 41.0937 53.953C41.5537 57.133 42.4337 61.823 44.5437 64.413C45.9937 66.183 49.6237 67.033 51.5937 65.783C53.9837 64.283 54.8737 59.513 55.4937 56.963C56.4137 53.163 56.6237 49.223 56.1337 45.343C55.7237 43.323 55.5137 41.263 55.5137 39.193C55.5137 38.903 55.6037 38.563 55.8737 38.473C56.1437 38.383 56.5037 38.713 56.6737 39.033C57.5937 40.823 58.1437 42.773 58.2637 44.783C58.2637 45.473 58.3537 46.163 58.5437 46.833C58.7537 47.513 59.3237 48.003 60.0237 48.113C61.1237 48.183 61.8137 46.953 62.0337 45.873C62.4837 43.753 63.5637 41.893 64.2237 39.753C65.0837 36.993 65.8337 34.193 66.4637 31.373C66.8037 29.843 67.6537 27.393 68.7437 30.153C69.3437 31.683 68.6837 33.493 68.1837 34.923C67.1637 37.863 66.3837 40.873 65.8537 43.943C65.7437 45.323 65.5137 46.683 65.1637 48.013C64.5737 49.243 63.9037 50.433 63.1637 51.573C61.7437 54.063 60.5337 56.683 59.5637 59.383C59.1137 60.693 58.7937 62.053 58.6137 63.433C58.5537 63.853 58.7037 67.203 58.5737 67.283C69.5537 60.223 80.5237 53.163 91.4937 46.093C91.7637 49.423 89.1537 52.373 86.2037 53.943C83.2537 55.513 79.8837 56.093 76.7737 57.353C68.6137 60.673 62.9337 68.523 60.2737 76.933C57.6137 85.343 57.5737 94.333 57.8837 103.183C58.4037 117.543 60.3137 132.973 69.9737 143.603C71.4037 145.193 72.9437 147.843 71.1937 149.063C70.5537 149.413 69.8237 149.563 69.1037 149.503L39.5337 149.603C49.6137 141.463 49.8037 132.713 50.2537 120.683C50.7937 106.363 50.7537 92.033 50.1337 77.703V77.723Z" fill="#231F20"/>
<path id="Vector_4" d="M48.1737 15.623C50.0137 15.623 52.0337 16.423 52.7337 18.113C52.9837 15.803 55.0637 14.133 57.3737 14.383C58.2037 14.473 58.9837 14.803 59.6237 15.343C57.3437 13.193 56.3137 10.043 55.6437 6.993C55.5337 6.203 55.2337 5.453 54.7737 4.803C53.9737 3.883 52.6437 3.703 51.4237 3.723C48.6037 3.703 45.8437 4.503 43.4737 6.023C41.0837 7.573 39.4137 10.003 38.8337 12.793C38.5937 14.103 39.0837 20.623 41.3337 19.673C41.7137 19.503 42.2437 18.423 42.5637 18.083C43.0437 17.603 43.5737 17.173 44.1537 16.823C45.3637 16.073 46.7537 15.663 48.1737 15.633V15.623Z" fill="url(#paint1_linear_19_70)"/>
<path id="Vector_5" d="M21.3137 47.573C21.4737 45.163 22.9937 43.043 25.2337 42.123C27.4537 41.253 29.8937 41.163 32.1737 41.853C31.0137 37.793 33.3337 33.563 37.3737 32.353C34.0437 28.973 29.2037 27.543 24.5737 28.593C22.9137 29.033 21.3137 29.673 19.8037 30.503C17.7637 31.553 15.7237 32.813 14.5737 34.793C13.0537 37.393 12.7537 40.043 15.3737 41.433C18.6037 43.143 19.9737 43.803 21.3137 47.563V47.573Z" fill="url(#paint2_linear_19_70)"/>
</g>
<defs>
<linearGradient id="paint0_linear_19_70" x1="51.8737" y1="46.333" x2="99.7937" y2="175.433" gradientUnits="userSpaceOnUse">
<stop stop-color="#010101" stop-opacity="0"/>
<stop offset="0.41" stop-color="#010101" stop-opacity="0.41"/>
<stop offset="0.95" stop-color="#010101"/>
</linearGradient>
<linearGradient id="paint1_linear_19_70" x1="53.1637" y1="7.22299" x2="-1.0863" y2="92.833" gradientUnits="userSpaceOnUse">
<stop stop-color="#010101" stop-opacity="0"/>
<stop offset="0.41" stop-color="#010101" stop-opacity="0.41"/>
<stop offset="0.95" stop-color="#010101"/>
</linearGradient>
<linearGradient id="paint2_linear_19_70" x1="24.5037" y1="33.693" x2="40.9836" y2="71.383" gradientUnits="userSpaceOnUse">
<stop stop-color="#010101" stop-opacity="0"/>
<stop offset="0.41" stop-color="#010101" stop-opacity="0.41"/>
<stop offset="0.95" stop-color="#010101"/>
</linearGradient>
</defs>
</svg>
